<?xml version="1.0" encoding="utf-8"?>
<!-- Generator: Adobe Illustrator 21.0.0, SVG Export Plug-In . SVG Version: 6.00 Build 0)  -->
<svg version="1.1" id="Layer_1" xmlns="http://www.w3.org/2000/svg" xmlns:xlink="http://www.w3.org/1999/xlink" x="0px" y="0px"
	 viewBox="0 0 100 50" style="enable-background:new 0 0 100 50;" xml:space="preserve">
<style type="text/css">
	.st0{fill:#B3B3B3;}
</style>
<path id="icone_veiculos" class="st0" d="M99.1,35.4l-2.6,1.1c-0.8,0.3-1.6,0.4-2.4,0.4H88c1.8-4.9-0.7-10.3-5.5-12.2
	c-4.9-1.8-10.3,0.7-12.2,5.5c-0.7,1.8-0.8,3.7-0.3,5.6H28.9c1.3-5.1-1.7-10.2-6.8-11.5c-5.1-1.3-10.2,1.7-11.5,6.8
	c-0.2,0.8-0.3,1.6-0.3,2.4c0,0.5,0,1,0.1,1.5l-8.3-1.3c-0.6-0.1-1.1-0.5-1.4-1.1l-0.5-1C0.1,31.3,0,30.9,0,30.5v-2.4
	C0,27,0.4,26,1.1,25.1l0.6-0.8v-7c0-0.4,0.3-0.7,0.7-0.7c14.3,0,14.7-7.5,41.6-7.5c10.8,0,21.4,3.3,30.2,9.5c0,0,20.8,3.3,25.1,7.2
	c0.4,0.3,0.6,0.8,0.6,1.3v7C100,34.7,99.7,35.2,99.1,35.4z M19.7,26.4c4,0,7.2,3.3,7.2,7.2c0,0,0,0,0,0l0,0c0,0.3,0,0.7-0.1,1
	c0,0,0,0.1,0,0.1c0,0,0-0.1,0-0.1c-0.5,3.9-4.1,6.7-8.1,6.2c-3.2-0.4-5.8-3-6.2-6.2c0,0,0,0.1,0,0.1c0,0,0-0.1,0-0.1
	c0-0.3-0.1-0.7-0.1-1l0,0C12.5,29.7,15.7,26.4,19.7,26.4C19.7,26.4,19.7,26.4,19.7,26.4L19.7,26.4z M79.1,26.4c4,0,7.3,3.2,7.3,7.2
	c0,4-3.2,7.3-7.2,7.3c-4,0-7.3-3.2-7.3-7.2c0,0,0,0,0,0C71.9,29.7,75.1,26.4,79.1,26.4C79.1,26.4,79.1,26.4,79.1,26.4L79.1,26.4z"/>
</svg>
