<?xml version="1.0" encoding="utf-8"?>
<!-- Generator: Adobe Illustrator 26.3.1, SVG Export Plug-In . SVG Version: 6.00 Build 0)  -->
<svg version="1.1" id="a" xmlns="http://www.w3.org/2000/svg" xmlns:xlink="http://www.w3.org/1999/xlink" x="0px" y="0px"
	 viewBox="0 0 40 40" style="enable-background:new 0 0 40 40;" xml:space="preserve">
<style type="text/css">
	.st0{clip-path:url(#SVGID_00000140731625658433986280000012604840451930278842_);}
	.st1{fill:#3C3C3C;}
</style>
<g id="b" transform="translate(-3.157)">
	<g id="c" transform="translate(3.157 1)">
		<g>
			<defs>
				<rect id="SVGID_1_" x="1.4" y="1.6" width="37.2" height="34.7"/>
			</defs>
			<clipPath id="SVGID_00000170964365820787509740000010871137082521515450_">
				<use xlink:href="#SVGID_1_"  style="overflow:visible;"/>
			</clipPath>
			<g style="clip-path:url(#SVGID_00000170964365820787509740000010871137082521515450_);">
				<g id="e" transform="translate(0 0)">
					<path id="f" class="st1" d="M27.2,20.9c-0.2-0.6-0.8-1-1.5-1H14.3c-0.7,0-1.3,0.4-1.5,1l-2.2,6.2v8.3c0,0.6,0.5,1,1,1h1
						c0.6,0,1-0.5,1-1v-1h12.4v1c0,0.6,0.5,1,1,1h1c0.6,0,1-0.5,1-1v-8.3C29.3,27.1,27.2,20.9,27.2,20.9z M15.4,30.5
						c-0.7,0-1.2-0.5-1.2-1.2s0.5-1.2,1.2-1.2s1.2,0.5,1.2,1.2C16.7,30,16.1,30.5,15.4,30.5L15.4,30.5 M24.6,30.5
						c-0.7,0-1.2-0.5-1.2-1.2s0.5-1.2,1.2-1.2c0.7,0,1.2,0.5,1.2,1.2C25.8,30,25.2,30.5,24.6,30.5 M14.2,26l1.2-4h9.1l1.2,4H14.2
						L14.2,26z"/>
					<path id="g" class="st1" d="M10.7,23.4l0.6-1.7H4.2c-0.5,0-1,0.3-1.1,0.8l-1.7,4.8v6.4c0,0.4,0.4,0.8,0.8,0.8H3
						c0.4,0,0.8-0.4,0.8-0.8v-0.8h5.8v-6l0.1-0.4H4.1l1-3.1L10.7,23.4L10.7,23.4z M5,28.1c0.6,0,1,0.5,1,1s-0.5,1-1,1s-1-0.5-1-1
						l0,0C3.9,28.6,4.4,28.1,5,28.1"/>
					<path id="h" class="st1" d="M37,22.5c-0.2-0.5-0.6-0.8-1.1-0.8h-7.2l0.6,1.7h5.7l1,3.1h-5.6l0.1,0.4v6h5.8v0.8
						c0,0.4,0.4,0.8,0.8,0.8h0.8c0.4,0,0.8-0.4,0.8-0.8v-6.4L37,22.5L37,22.5z M35.3,30.2c-0.6,0-1-0.5-1-1c0-0.6,0.5-1,1-1
						s1,0.5,1,1l0,0C36.3,29.7,35.9,30.2,35.3,30.2"/>
					<path id="i" class="st1" d="M20,16.5c1.6-2.1,5.1-7.3,5.1-9.9c0-2.8-2.3-5.1-5.1-5.1s-5.1,2.3-5.1,5.1
						C14.9,9.3,18.4,14.4,20,16.5 M20,5.4c0.8,0,1.5,0.7,1.5,1.5c0,0.8-0.7,1.5-1.5,1.5c-0.8,0-1.5-0.7-1.5-1.5
						C18.5,6,19.1,5.4,20,5.4"/>
				</g>
			</g>
		</g>
	</g>
</g>
</svg>
