<?xml version="1.0" encoding="utf-8"?>
<!-- Generator: Adobe Illustrator 25.3.1, SVG Export Plug-In . SVG Version: 6.00 Build 0)  -->
<svg version="1.1" id="Camada_1_cópia" xmlns="http://www.w3.org/2000/svg" xmlns:xlink="http://www.w3.org/1999/xlink" x="0px"
	 y="0px" viewBox="0 0 26 26" style="enable-background:new 0 0 26 26;" xml:space="preserve">
<style type="text/css">
	.st0{fill-rule:evenodd;clip-rule:evenodd;fill:#FF1753;}
	.st1{fill-rule:evenodd;clip-rule:evenodd;}
	.st2{fill-rule:evenodd;clip-rule:evenodd;fill:#00C9D0;}
</style>
<g transform="matrix(1,0,0,1,-499,-501)">
</g>
<g>
	<path class="st0" d="M16.4,10.1c1.3,1,3,1.5,4.8,1.5V8.2c-0.3,0-0.7,0-1-0.1v2.7c-1.8,0-3.4-0.6-4.8-1.5v7c0,3.5-2.8,6.3-6.3,6.3
		c-1.3,0-2.5-0.4-3.5-1.1c1.1,1.2,2.8,1.9,4.5,1.9c3.5,0,6.3-2.8,6.3-6.3L16.4,10.1L16.4,10.1z M17.7,6.7c-0.7-0.8-1.1-1.7-1.2-2.8
		V3.4h-0.9C15.7,4.8,16.5,5.9,17.7,6.7L17.7,6.7z M7.8,18.8c-0.4-0.5-0.6-1.1-0.6-1.8c0-1.6,1.3-2.9,2.9-2.9c0.3,0,0.6,0,0.9,0.1
		v-3.5c-0.3,0-0.7-0.1-1-0.1v2.7c-0.3-0.1-0.6-0.1-0.9-0.1c-1.6,0-2.9,1.3-2.9,2.9C6.2,17.4,6.9,18.4,7.8,18.8z"/>
	<path class="st1" d="M15.4,9.3c1.3,1,3,1.5,4.8,1.5V8.1c-1-0.2-1.9-0.7-2.5-1.5c-1.1-0.7-1.9-1.9-2.2-3.2H13v13.7
		c0,1.6-1.3,2.9-2.9,2.9c-0.9,0-1.8-0.4-2.3-1.1c-0.9-0.5-1.6-1.5-1.6-2.6c0-1.6,1.3-2.9,2.9-2.9c0.3,0,0.6,0,0.9,0.1v-2.7
		c-3.4,0.1-6.2,2.9-6.2,6.3c0,1.7,0.7,3.3,1.8,4.4c1,0.7,2.2,1.1,3.5,1.1c3.5,0,6.3-2.8,6.3-6.3V9.3z"/>
	<path class="st2" d="M20.2,8.1V7.4c-0.9,0-1.8-0.2-2.5-0.7C18.4,7.4,19.2,7.9,20.2,8.1z M15.5,3.4c0-0.1,0-0.3-0.1-0.4V2.6H12v13.7
		c0,1.6-1.3,2.9-2.9,2.9c-0.5,0-0.9-0.1-1.3-0.3c0.5,0.7,1.4,1.1,2.3,1.1c1.6,0,2.9-1.3,2.9-2.9V3.4H15.5z M10,10.8V10
		c-0.3,0-0.6-0.1-0.9-0.1c-3.5,0-6.3,2.8-6.3,6.3c0,2.2,1.1,4.1,2.8,5.3c-1.1-1.1-1.8-2.7-1.8-4.4C3.8,13.6,6.5,10.8,10,10.8
		L10,10.8z"/>
</g>
</svg>
