<?xml version="1.0" encoding="utf-8"?>
<!-- Generator: Adobe Illustrator 27.0.0, SVG Export Plug-In . SVG Version: 6.00 Build 0)  -->
<svg version="1.1" id="Capa_1" xmlns="http://www.w3.org/2000/svg" xmlns:xlink="http://www.w3.org/1999/xlink" x="0px" y="0px"
	 viewBox="0 0 42.5 40.8" style="enable-background:new 0 0 42.5 40.8;" xml:space="preserve">
<style type="text/css">
	.st0{display:none;fill-rule:evenodd;clip-rule:evenodd;fill:#4D4D4D;}
	.st1{fill:#808080;}
</style>
<path id="path-1" class="st0" d="M32.3,16H4.7l0.1-3.1h-7.6V16h4.5l2.4,18.2l0,0v0H6c-0.4,0.5-0.7,1.1-0.7,1.8c0,1.6,1.3,2.9,3,2.9
	c1.7,0,3-1.3,3-2.9c0-0.7-0.3-1.3-0.7-1.8h12C22.2,34.7,22,35.4,22,36c0,1.6,1.3,2.9,3,2.9c1.7,0,3-1.3,3-2.9c0-0.7-0.3-1.3-0.7-1.8
	h2.2c0,0-0.1-0.5-0.2-1.3c-15.3,0-25.1-1.5-25.1-1.5l26.1-3.1L32.3,16z M8.3,37.2c-0.7,0-1.2-0.5-1.2-1.2c0-0.7,0.6-1.2,1.2-1.2
	c0.7,0,1.2,0.5,1.2,1.2C9.6,36.7,9,37.2,8.3,37.2z M25,37.2c-0.7,0-1.2-0.5-1.2-1.2c0-0.7,0.6-1.2,1.2-1.2c0.7,0,1.2,0.5,1.2,1.2
	C26.2,36.7,25.7,37.2,25,37.2z"/>
<path class="st1" d="M21.3,0C9.5,0,0,9.1,0,20.4s9.5,20.4,21.3,20.4s21.3-9.1,21.3-20.4S33,0,21.3,0z M3.4,20.4
	c0-9.5,8-17.1,17.9-17.1S39.1,11,39.1,20.4c0,3.5-1.1,6.9-3.2,9.7l-8.3-8v-6.6l-4.5-4.3H15l6.2,5.9l-3.6,3.4l-6.2-5.9v7.8l4.5,4.3
	h6.9l8.2,7.9c-8.2,5.2-19.3,3-24.7-4.9C4.4,27,3.4,23.7,3.4,20.4z"/>
</svg>
